<svg width="889" height="154" viewBox="0 0 889 154" fill="none" xmlns="http://www.w3.org/2000/svg">
<path d="M0.655424 151V121.249L74.7164 37.904H3.18742V3.29999H131.264V33.051L57.2034 116.396H131.264V151H0.655424ZM161.067 151V3.29999H279.86V38.115H201.579V60.481H272.475V92.764H201.579V116.185H280.915V151H161.067ZM310.242 151V3.29999H380.083C401.605 3.29999 417.641 8.57499 428.191 19.125C436.912 27.8463 441.273 39.5217 441.273 54.151C441.273 75.8137 431.145 90.9353 410.889 99.516L446.126 151H398.862L369.111 106.268H351.176V151H310.242ZM351.176 74.196H378.184C385.077 74.196 390.422 72.6487 394.22 69.554C398.159 66.3187 400.128 61.8877 400.128 56.261C400.128 50.4937 398.159 46.133 394.22 43.179C390.422 40.225 385.006 38.748 377.973 38.748H351.176V74.196ZM601.369 131.588C586.177 146.499 567.257 153.954 544.61 153.954C521.963 153.954 503.043 146.569 487.851 131.799C472.8 116.888 465.274 98.672 465.274 77.15C465.274 55.7687 472.87 37.6227 488.062 22.712C503.395 7.80132 522.385 0.34599 545.032 0.34599C567.679 0.34599 586.529 7.80132 601.58 22.712C616.772 37.482 624.368 55.628 624.368 77.15C624.368 98.5313 616.702 116.677 601.369 131.588ZM545.032 117.029C556.145 117.029 565.147 113.161 572.04 105.424C579.073 97.6873 582.59 88.2627 582.59 77.15C582.59 66.178 579.003 56.8237 571.829 49.087C564.655 41.2097 555.582 37.271 544.61 37.271C533.638 37.271 524.635 41.1393 517.602 48.876C510.709 56.6127 507.263 66.0373 507.263 77.15C507.263 88.122 510.78 97.5467 517.813 105.424C524.987 113.161 534.06 117.029 545.032 117.029ZM649.489 102.681V67.444H718.697V102.681H649.489ZM824.029 153.954C800.819 153.954 781.618 146.78 766.426 132.432C751.234 117.943 743.638 99.516 743.638 77.15C743.638 55.4873 751.163 37.271 766.215 22.501C781.407 7.73099 800.397 0.34599 823.185 0.34599C846.535 0.34599 866.51 7.51999 883.109 21.868L859.055 50.775C847.942 41.491 836.056 36.849 823.396 36.849C812.705 36.849 803.702 40.7877 796.388 48.665C789.214 56.5423 785.627 66.2483 785.627 77.783C785.627 89.7397 789.354 99.5863 796.81 107.323C804.406 114.919 814.041 118.717 825.717 118.717C835.282 118.717 843.159 116.677 849.349 112.598V94.663H820.231V64.701H888.173V131.166C869.745 146.358 848.364 153.954 824.029 153.954Z" fill="url(#paint0_linear)"/>
<defs>
<linearGradient id="paint0_linear" x1="445" y1="-17" x2="445" y2="158" gradientUnits="userSpaceOnUse">
<stop stop-color="#F2CEAF"/>
<stop offset="0.489059" stop-color="#D08F5E"/>
<stop offset="1" stop-color="#524039"/>
</linearGradient>
</defs>
</svg>
