<svg width="28" height="28" viewBox="0 0 28 28" fill="none" xmlns="http://www.w3.org/2000/svg">
<path d="M7 0C6.0375 0 5.25 0.7875 5.25 1.75V26.25C5.25 27.2125 6.0375 28 7 28H24.5C25.4625 28 26.25 27.2125 26.25 26.25V7L19.25 0H7Z" fill="#E2E5E7"/>
<path d="M21 7H26.25L19.25 0V5.25C19.25 6.2125 20.0375 7 21 7Z" fill="#B0B7BD"/>
<path d="M26.25 12.25L21 7H26.25V12.25Z" fill="#CAD1D8"/>
<path d="M22.75 22.75C22.75 23.2312 22.3563 23.625 21.875 23.625H2.625C2.14375 23.625 1.75 23.2312 1.75 22.75V14C1.75 13.5187 2.14375 13.125 2.625 13.125H21.875C22.3563 13.125 22.75 13.5187 22.75 14V22.75Z" fill="#F15642"/>
<path d="M5.56445 16.5787C5.56445 16.3477 5.74645 16.0957 6.03958 16.0957H7.6557C8.5657 16.0957 9.3847 16.7047 9.3847 17.872C9.3847 18.978 8.5657 19.594 7.6557 19.594H6.48758V20.518C6.48758 20.826 6.29158 21.0001 6.03958 21.0001C5.80858 21.0001 5.56445 20.826 5.56445 20.518V16.5787ZM6.48758 16.9768V18.7198H7.6557C8.1247 18.7198 8.4957 18.306 8.4957 17.872C8.4957 17.3828 8.1247 16.9768 7.6557 16.9768H6.48758Z" fill="white"/>
<path d="M10.7545 21.0001C10.5235 21.0001 10.2715 20.8741 10.2715 20.5669V16.5927C10.2715 16.3416 10.5235 16.1587 10.7545 16.1587H12.3566C15.5539 16.1587 15.4839 21.0001 12.4196 21.0001H10.7545ZM11.1955 17.0127V20.1469H12.3566C14.2457 20.1469 14.3297 17.0127 12.3566 17.0127H11.1955Z" fill="white"/>
<path d="M16.6184 17.0686V18.1807H18.4025C18.6545 18.1807 18.9065 18.4327 18.9065 18.6768C18.9065 18.9078 18.6545 19.0968 18.4025 19.0968H16.6184V20.566C16.6184 20.811 16.4443 20.9991 16.1993 20.9991C15.8913 20.9991 15.7031 20.811 15.7031 20.566V16.5917C15.7031 16.3406 15.8921 16.1577 16.1993 16.1577H18.6554C18.9634 16.1577 19.1454 16.3406 19.1454 16.5917C19.1454 16.8157 18.9634 17.0677 18.6554 17.0677H16.6184V17.0686Z" fill="white"/>
<path d="M21.875 23.625H5.25V24.5H21.875C22.3563 24.5 22.75 24.1063 22.75 23.625V22.75C22.75 23.2313 22.3563 23.625 21.875 23.625Z" fill="#CAD1D8"/>
</svg>
