<svg width="6" height="11" viewBox="0 0 6 11"  xmlns="http://www.w3.org/2000/svg">
<path fill-rule="evenodd" clip-rule="evenodd" d="M0.163668 5.92842L4.70721 10.8263C4.81214 10.9375 4.95442 11 5.10271 11C5.25101 11 5.39329 10.9375 5.49822 10.8263L5.83087 10.4616C5.93581 10.348 5.99467 10.1951 5.99467 10.036C5.99467 9.87691 5.93581 9.72422 5.83087 9.61058L2.01816 5.5L5.83633 1.38942C5.94092 1.27437 5.99958 1.12087 6 0.961001C6.0003 0.882587 5.986 0.804976 5.95791 0.732448C5.92983 0.659919 5.88849 0.593912 5.83633 0.538382L5.50368 0.173713C5.39741 0.0628519 5.25451 0.000486374 5.10551 0C4.95812 0.000510216 4.81679 0.0629864 4.71267 0.173713L0.163668 5.07738C0.111506 5.13291 0.070168 5.19878 0.0420856 5.2713C0.0140038 5.34383 -0.000295639 5.42159 4.76837e-06 5.5C-0.000615597 5.66008 0.0581961 5.81398 0.163668 5.92842Z" />
</svg>
