<svg width="6" height="11" viewBox="0 0 6 11" fill="none" xmlns="http://www.w3.org/2000/svg">
<path fill-rule="evenodd" clip-rule="evenodd" d="M5.83633 5.07158L1.29279 0.173712C1.18786 0.0624899 1.04558 0 0.897287 0C0.748993 0 0.60671 0.0624899 0.501779 0.173712L0.169127 0.538381C0.0641883 0.652015 0.00533134 0.804852 0.00533134 0.96397C0.00533134 1.12309 0.0641883 1.27578 0.169127 1.38942L3.98184 5.5L0.163667 9.61058C0.0590818 9.72563 0.0004229 9.87913 4.64009e-06 10.039C-0.000295874 10.1174 0.0140034 10.195 0.0420855 10.2676C0.0701676 10.3401 0.111506 10.4061 0.163667 10.4616L0.49632 10.8263C0.602587 10.9371 0.745487 10.9995 0.89449 11C1.04188 10.9995 1.18321 10.937 1.28733 10.8263L5.83633 5.92262C5.88849 5.86709 5.92983 5.80122 5.95791 5.7287C5.986 5.65617 6.0003 5.57841 6 5.5C6.00062 5.33992 5.9418 5.18602 5.83633 5.07158Z" fill="#212121"/>
</svg>
