<svg width="26" height="26" viewBox="0 0 26 26" fill="none" xmlns="http://www.w3.org/2000/svg">
<path d="M19.6367 15.458C17.8295 15.458 16.3594 16.9282 16.3594 18.7353C16.3594 20.5425 17.8295 22.0126 19.6367 22.0126C21.4442 22.0126 22.914 20.5425 22.914 18.7353C22.914 16.9282 21.4438 15.458 19.6367 15.458ZM19.6367 20.374C18.733 20.374 17.998 19.639 17.998 18.7353C17.998 17.8316 18.733 17.0967 19.6367 17.0967C20.5404 17.0967 21.2754 17.8316 21.2754 18.7353C21.2754 19.6391 20.5404 20.374 19.6367 20.374Z" fill="#F29D00"/>
<path d="M8.43943 15.458C6.63228 15.458 5.16211 16.9282 5.16211 18.7353C5.16211 20.5425 6.63228 22.0126 8.43943 22.0126C10.2466 22.0126 11.7167 20.5425 11.7167 18.7353C11.7167 16.9282 10.2466 15.458 8.43943 15.458ZM8.43943 20.374C7.53573 20.374 6.80077 19.639 6.80077 18.7353C6.80077 17.8316 7.53573 17.0967 8.43943 17.0967C9.34288 17.0967 10.0781 17.8316 10.0781 18.7353C10.0781 19.6391 9.34313 20.374 8.43943 20.374Z" fill="#F29D00"/>
<path d="M21.8442 6.07717C21.7049 5.80051 21.4217 5.62598 21.112 5.62598H16.7969V7.26464H20.6067L22.8378 11.7021L24.3022 10.9658L21.8442 6.07717Z" fill="#F29D00"/>
<path d="M17.1781 17.9434H10.9785V19.582H17.1781V17.9434Z" fill="#F29D00"/>
<path d="M5.97991 17.9434H3.13962C2.68705 17.9434 2.32031 18.3102 2.32031 18.7627C2.32031 19.2152 2.68711 19.582 3.13962 19.582H5.97996C6.43253 19.582 6.79927 19.2152 6.79927 18.7627C6.79927 18.3101 6.43248 17.9434 5.97991 17.9434Z" fill="#F29D00"/>
<path d="M25.8268 12.9344L24.2152 10.8587C24.0604 10.6588 23.8214 10.5419 23.5682 10.5419H17.6144V4.80661C17.6144 4.35405 17.2476 3.9873 16.7951 3.9873H3.13962C2.68705 3.9873 2.32031 4.3541 2.32031 4.80661C2.32031 5.25912 2.68711 5.62591 3.13962 5.62591H15.9757V11.3612C15.9757 11.8138 16.3425 12.1805 16.7951 12.1805H23.167L24.3602 13.7176V17.9431H22.0934C21.6408 17.9431 21.2741 18.3099 21.2741 18.7624C21.2741 19.215 21.6409 19.5817 22.0934 19.5817H25.1795C25.6321 19.5817 25.9988 19.2149 25.9988 18.7624V13.4369C25.9988 13.255 25.9382 13.078 25.8268 12.9344Z" fill="#F29D00"/>
<path d="M5.92613 13.792H2.1572C1.70463 13.792 1.33789 14.1588 1.33789 14.6113C1.33789 15.0639 1.70468 15.4306 2.1572 15.4306H5.92608C6.37864 15.4306 6.74538 15.0638 6.74538 14.6113C6.74543 14.1588 6.37864 13.792 5.92613 13.792Z" fill="#F29D00"/>
<path d="M7.81092 10.5693H0.819305C0.366793 10.5693 0 10.9361 0 11.3887C0 11.8413 0.366793 12.208 0.819305 12.208H7.81092C8.26348 12.208 8.63022 11.8412 8.63022 11.3887C8.63022 10.9362 8.26348 10.5693 7.81092 10.5693Z" fill="#F29D00"/>
<path d="M9.14881 7.34668H2.1572C1.70463 7.34668 1.33789 7.71347 1.33789 8.16598C1.33789 8.61855 1.70468 8.98529 2.1572 8.98529H9.14881C9.60137 8.98529 9.96811 8.6185 9.96811 8.16598C9.96817 7.71347 9.60137 7.34668 9.14881 7.34668Z" fill="#F29D00"/>
</svg>
