<svg width="22" height="22" viewBox="0 0 22 22" fill="none" xmlns="http://www.w3.org/2000/svg">
<path d="M11 0C4.91979 0 0 4.92022 0 11C0 17.0802 4.92022 22 11 22C17.0802 22 22 17.0798 22 11C22 4.91979 17.0797 0 11 0ZM11 20.2812C5.86983 20.2812 1.71875 16.1298 1.71875 11C1.71875 5.86983 5.87018 1.71875 11 1.71875C16.1302 1.71875 20.2812 5.87018 20.2812 11C20.2812 16.1302 16.1298 20.2812 11 20.2812Z" fill="#8A7015"/>
<path d="M11 9.20947C10.5254 9.20947 10.1406 9.59421 10.1406 10.0688V15.6029C10.1406 16.0776 10.5254 16.4623 11 16.4623C11.4746 16.4623 11.8594 16.0775 11.8594 15.6029V10.0688C11.8594 9.59421 11.4746 9.20947 11 9.20947Z" fill="#8A7015"/>
<path d="M11 8.15717C11.6407 8.15717 12.1602 7.63775 12.1602 6.99702C12.1602 6.35628 11.6407 5.83686 11 5.83686C10.3593 5.83686 9.83984 6.35628 9.83984 6.99702C9.83984 7.63775 10.3593 8.15717 11 8.15717Z" fill="#8A7015"/>
</svg>
