<svg width="12" height="14" viewBox="0 0 12 14"  xmlns="http://www.w3.org/2000/svg">
<path fill-rule="evenodd" clip-rule="evenodd" d="M0 6C0 2.65714 2.65714 0 6 0C9.34286 0 12 2.65714 11.9143 6C11.9143 7.62857 11.3143 9.17143 10.1143 10.2857C10.1143 10.3498 8.14901 12.0916 7.12193 13.0019C6.77557 13.3088 6.5359 13.5212 6.51429 13.5429C6.25714 13.8 5.74286 13.8 5.4 13.5429C5.35714 13.5 4.47857 12.7071 3.6 11.9143C2.72143 11.1214 1.84286 10.3286 1.8 10.2857C0.6 9.17143 0 7.62857 0 6ZM4.2857 5.99998C4.2857 6.94284 5.05713 7.71427 5.99999 7.71427C6.94284 7.71427 7.71427 6.94284 7.71427 5.99998C7.71427 5.05712 6.94284 4.28569 5.99999 4.28569C5.05713 4.28569 4.2857 5.05712 4.2857 5.99998Z"/>
</svg>
