<svg width="22" height="20" viewBox="0 0 22 20"  xmlns="http://www.w3.org/2000/svg">
<path d="M14.708 1.75H1.29199C1.08557 1.75 0.944874 1.89153 0.869598 2.02048C0.790751 2.15555 0.75 2.32566 0.75 2.5C0.75 2.67444 0.790736 2.84458 0.869619 2.97966C0.944969 3.10869 1.08569 3.25 1.29199 3.25H14.708C14.9143 3.25 15.055 3.10863 15.1303 2.97969C15.2092 2.84464 15.25 2.6745 15.25 2.5C15.25 2.32561 15.2092 2.15549 15.1303 2.02045C15.0551 1.89158 14.9144 1.75 14.708 1.75Z"   stroke-width="0.5"/>
<path d="M21.062 8.75H0.937984C0.527789 8.75 0.25 9.1182 0.25 9.5C0.25 9.88217 0.527873 10.25 0.937984 10.25H21.062C21.4718 10.25 21.75 9.88227 21.75 9.5C21.75 9.11811 21.4719 8.75 21.062 8.75Z"   stroke-width="0.5"/>
<path d="M21.062 15.75H0.937984C0.527789 15.75 0.25 16.1182 0.25 16.5C0.25 16.8822 0.527873 17.25 0.937984 17.25H21.062C21.4718 17.25 21.75 16.8823 21.75 16.5C21.75 16.1181 21.4719 15.75 21.062 15.75Z"   stroke-width="0.5"/>
</svg>
