<svg width="16" height="16" viewBox="0 0 16 16" fill="none" xmlns="http://www.w3.org/2000/svg">
<path fill-rule="evenodd" clip-rule="evenodd" d="M14.1668 0H1.83321C1.34734 0.000768981 0.881581 0.194119 0.537968 0.537642C0.194354 0.881165 0.000897504 1.34686 0 1.83274V14.1673C0.000897504 14.6531 0.194354 15.1188 0.537968 15.4624C0.881581 15.8059 1.34734 15.9992 1.83321 16H14.1668C14.6527 15.9992 15.1184 15.8059 15.462 15.4624C15.8056 15.1188 15.9991 14.6531 16 14.1673V1.83274C15.9991 1.34686 15.8056 0.881165 15.462 0.537642C15.1184 0.194119 14.6527 0.000768981 14.1668 0ZM11.5001 8.66424H8.66667V11.5006C8.66667 11.6774 8.59644 11.847 8.47141 11.972C8.34639 12.097 8.17681 12.1673 8 12.1673C7.82319 12.1673 7.65361 12.097 7.52859 11.972C7.40356 11.847 7.33333 11.6774 7.33333 11.5006V8.66424H4.49988C4.32307 8.66424 4.15349 8.59401 4.02847 8.46899C3.90344 8.34396 3.83321 8.17439 3.83321 7.99757C3.83321 7.82076 3.90344 7.65118 4.02847 7.52616C4.15349 7.40114 4.32307 7.33091 4.49988 7.33091H7.33333V4.49941C7.33333 4.3226 7.40356 4.15302 7.52859 4.028C7.65361 3.90297 7.82319 3.83274 8 3.83274C8.17681 3.83274 8.34639 3.90297 8.47141 4.028C8.59644 4.15302 8.66667 4.3226 8.66667 4.49941V7.33091H11.5001C11.6769 7.33091 11.8465 7.40114 11.9715 7.52616C12.0966 7.65118 12.1668 7.82076 12.1668 7.99757C12.1668 8.17439 12.0966 8.34396 11.9715 8.46899C11.8465 8.59401 11.6769 8.66424 11.5001 8.66424Z" fill="#DEE1E7"/>
</svg>
