<svg width="20" height="20" viewBox="0 0 20 20" fill="none" xmlns="http://www.w3.org/2000/svg">
<path fill-rule="evenodd" clip-rule="evenodd" d="M18.4362 17.3951L14.1468 12.9395C15.2497 11.6301 15.854 9.98262 15.854 8.26749C15.854 4.26026 12.5896 1 8.57738 1C4.56513 1 1.30078 4.26026 1.30078 8.26749C1.30078 12.2747 4.56513 15.535 8.57738 15.535C10.0836 15.535 11.519 15.0812 12.7462 14.2199L17.0682 18.7093C17.2489 18.8967 17.4918 19 17.7522 19C17.9987 19 18.2325 18.9062 18.41 18.7355C18.7871 18.3731 18.7991 17.7721 18.4362 17.3951ZM8.57738 2.89587C11.5431 2.89587 13.9557 5.30552 13.9557 8.26749C13.9557 11.2295 11.5431 13.6391 8.57738 13.6391C5.61169 13.6391 3.19902 11.2295 3.19902 8.26749C3.19902 5.30552 5.61169 2.89587 8.57738 2.89587Z" fill="#0090D3"/>
</svg>
