<svg width="256" height="57" viewBox="0 0 256 57" fill="none" xmlns="http://www.w3.org/2000/svg">
<g clip-path="url(#clip0)">
<path d="M19.5146 1.49534C31.4768 -2.56445 44.2885 1.92575 51.3401 11.5343C52.1896 12.6045 52.8296 13.6747 53.4812 14.9543C53.2717 16.2339 52.8412 17.5135 52.4106 18.7931C50.7001 23.7021 47.919 28.4017 41.7285 33.1013C33.8274 39.0804 22.9357 38.2313 20.3641 37.5915C25.0652 42.0817 33.8157 43.3613 40.4368 41.6513C47.0579 39.9413 52.6085 35.4627 56.8906 28.1923C56.8906 38.8711 50.479 50.1896 37.8768 54.6682C32.1052 56.5876 24.8441 56.5876 18.4325 54.2378C11.1714 51.2482 4.98083 45.269 2.19974 37.3704C-2.69917 22.4225 4.99247 6.41595 19.5146 1.49534ZM17.1641 29.2625C17.1641 29.2625 18.4441 22.8529 23.3546 19.0141C28.4863 15.1753 34.4557 15.1753 35.0957 15.3847C35.7357 15.5941 29.1146 5.77616 18.6536 14.7449C22.9241 11.9647 25.2746 11.9647 26.3452 12.1857C27.4157 12.3951 27.6252 12.8255 26.5546 13.256C25.4841 13.6864 21.0041 15.6058 18.6536 20.9451C16.5241 26.2729 17.1641 29.2625 17.1641 29.2625Z" fill="#0090D3"/>
<path d="M241.465 18.4959L242.838 24.2541H240.115L241.465 18.4959ZM246.12 33.0949H255.382V32.2108L246.539 9.92268H236.427L227.583 32.2108V33.0949H236.846L237.823 30.4427H245.096L246.12 33.0949ZM225.744 33.0949L233.832 10.8068V9.92268H224.697L222.894 15.0294L221.16 23.4049H221.09L219.356 15.0294L217.587 9.92268H208.418V10.8068L216.54 33.0949H225.744ZM194.012 21.2878C194.024 20.52 194.152 19.8686 194.408 19.3335C194.664 18.7868 195.001 18.3564 195.408 18.019C195.827 17.6933 196.281 17.4723 196.782 17.3676C197.282 17.2629 197.782 17.2629 198.283 17.3676C198.783 17.4723 199.237 17.6933 199.656 18.019C200.063 18.3447 200.4 18.7868 200.656 19.3335C200.912 19.8686 201.04 20.5317 201.052 21.2878C201.04 22.0439 200.912 22.6837 200.656 23.2188C200.4 23.7655 200.063 24.1959 199.656 24.51C199.237 24.8357 198.783 25.0568 198.283 25.1615C197.782 25.2661 197.294 25.2661 196.782 25.1615C196.281 25.0568 195.827 24.8357 195.408 24.5217C194.99 24.196 194.664 23.7655 194.408 23.2304C194.152 22.6837 194.024 22.0439 194.012 21.2878ZM185.168 21.3111C185.192 22.9047 185.424 24.3472 185.878 25.6268C186.332 26.8947 186.96 28.0115 187.775 28.9653C188.578 29.9192 189.497 30.7102 190.544 31.35C191.603 31.9782 192.72 32.4551 193.919 32.7692C195.118 33.0833 196.339 33.2345 197.584 33.2345C198.83 33.2229 200.051 33.06 201.25 32.746C202.448 32.4202 203.566 31.9433 204.624 31.3035C205.672 30.6637 206.603 29.8727 207.406 28.9188C208.208 27.9649 208.837 26.8598 209.291 25.5919C209.744 24.3239 209.989 22.9047 210 21.3227C209.989 19.729 209.756 18.2749 209.291 17.007C208.837 15.7274 208.208 14.599 207.406 13.6451C206.603 12.6913 205.672 11.877 204.624 11.2372C203.577 10.5974 202.448 10.1204 201.25 9.79472C200.051 9.46901 198.83 9.30615 197.584 9.30615C196.339 9.30615 195.118 9.45738 193.919 9.78309C192.72 10.0972 191.603 10.5857 190.544 11.2255C189.497 11.8653 188.578 12.668 187.775 13.6219C186.972 14.5874 186.344 15.7041 185.878 16.9837C185.424 18.2633 185.192 19.7057 185.168 21.3111ZM170.111 23.8004L176.464 32.8274H183.923V9.92268H175.056V14.1104L175.615 18.9264L169.331 9.92268H161.872V32.839H170.809V28.8839L170.111 23.8004ZM144.22 21.2878C144.232 20.52 144.36 19.8686 144.616 19.3335C144.872 18.7868 145.209 18.3564 145.616 18.019C146.035 17.6933 146.489 17.4723 146.99 17.3676C147.49 17.2629 147.99 17.2629 148.491 17.3676C148.991 17.4723 149.445 17.6933 149.864 18.019C150.283 18.3447 150.608 18.7868 150.864 19.3335C151.12 19.8686 151.248 20.5317 151.26 21.2878C151.248 22.0439 151.12 22.6837 150.864 23.2188C150.608 23.7655 150.271 24.1959 149.864 24.51C149.445 24.8357 148.991 25.0568 148.491 25.1615C147.99 25.2661 147.502 25.2661 146.99 25.1615C146.489 25.0568 146.035 24.8357 145.616 24.5217C145.198 24.196 144.872 23.7655 144.616 23.2304C144.36 22.6837 144.232 22.0439 144.22 21.2878ZM135.388 21.3111C135.4 22.9047 135.644 24.3472 136.098 25.6268C136.552 26.8947 137.18 28.0115 137.995 28.9653C138.798 29.9192 139.717 30.7102 140.764 31.35C141.811 31.9782 142.94 32.4551 144.139 32.7692C145.337 33.0833 146.559 33.2345 147.804 33.2345C149.049 33.2229 150.271 33.06 151.47 32.746C152.668 32.4202 153.785 31.9433 154.844 31.3035C155.891 30.6637 156.822 29.8727 157.625 28.9188C158.428 27.9649 159.056 26.8598 159.51 25.5919C159.964 24.3239 160.208 22.9047 160.22 21.3227C160.208 19.729 159.964 18.2749 159.51 17.007C159.056 15.7274 158.428 14.599 157.625 13.6451C156.822 12.6913 155.891 11.877 154.844 11.2372C153.797 10.5974 152.668 10.1204 151.47 9.79472C150.271 9.46901 149.049 9.30615 147.804 9.30615C146.559 9.30615 145.337 9.45738 144.139 9.78309C142.94 10.0972 141.823 10.5857 140.764 11.2255C139.717 11.8653 138.798 12.668 137.995 13.6219C137.192 14.5874 136.563 15.7041 136.098 16.9837C135.632 18.2633 135.4 19.7057 135.388 21.3111ZM134.015 20.5666H121.378V24.4286H124.939C124.787 24.7427 124.555 24.9986 124.24 25.208C123.926 25.4057 123.589 25.557 123.216 25.65C122.844 25.7431 122.495 25.8013 122.158 25.8013C121.68 25.8013 121.215 25.7315 120.761 25.5802C120.307 25.429 119.9 25.1847 119.539 24.8474C119.179 24.51 118.888 24.068 118.678 23.5213C118.469 22.9745 118.352 22.3115 118.352 21.5204C118.364 20.7643 118.504 20.1129 118.748 19.5778C119.004 19.031 119.342 18.589 119.76 18.2633C120.179 17.9259 120.633 17.6933 121.134 17.577C121.634 17.449 122.134 17.4257 122.635 17.5188C123.147 17.6002 123.6 17.798 124.043 18.1004C124.473 18.4029 124.822 18.81 125.09 19.3219H133.899C133.678 17.9259 133.27 16.6813 132.688 15.5762C132.107 14.471 131.385 13.5172 130.536 12.7029C129.675 11.8886 128.732 11.2372 127.685 10.7137C126.638 10.2019 125.555 9.82962 124.403 9.6086C123.263 9.38758 122.099 9.31778 120.924 9.38758C119.76 9.45738 118.62 9.67839 117.515 10.039C116.409 10.3996 115.374 10.9115 114.419 11.5745C113.454 12.2376 112.616 13.0402 111.894 13.9941C111.161 14.948 110.591 16.0531 110.184 17.2978C109.776 18.5425 109.555 19.9384 109.544 21.4855C109.555 23.149 109.8 24.6264 110.288 25.9408C110.766 27.2553 111.429 28.3953 112.255 29.3608C113.081 30.338 114.047 31.129 115.129 31.7572C116.211 32.3853 117.363 32.839 118.597 33.1298C119.83 33.409 121.075 33.537 122.344 33.4788C123.612 33.4206 124.846 33.2113 126.044 32.8157C127.243 32.4202 128.348 31.8619 129.372 31.1406C130.396 30.4194 131.28 29.5121 132.025 28.4535C132.77 27.3949 133.317 26.1619 133.678 24.7543C133.794 24.2541 133.875 23.7888 133.922 23.3468C133.968 22.9047 133.992 22.4627 134.003 22.0206C134.015 21.5321 134.015 21.0551 134.015 20.5666ZM95.8245 19.8802V16.8092H96.8834C97.5117 16.7976 97.9772 16.9372 98.2797 17.1931C98.5823 17.4374 98.7335 17.8445 98.7335 18.3796C98.7335 18.9264 98.5823 19.3102 98.2797 19.5313C97.9772 19.7523 97.5117 19.8686 96.8834 19.8802H95.8245ZM96.5692 26.7435L99.4783 32.8274H108.485V32.1062L104.75 25.0335C105.436 24.6147 106.018 24.1029 106.53 23.4864C107.03 22.8698 107.426 22.137 107.694 21.2994C107.973 20.4502 108.112 19.4615 108.124 18.3564C108.112 16.9953 107.915 15.8321 107.507 14.8549C107.1 13.8894 106.542 13.0751 105.82 12.4353C105.099 11.7955 104.261 11.2953 103.318 10.9231C102.376 10.5625 101.352 10.2949 100.258 10.1437C99.1641 9.99248 98.047 9.91105 96.9066 9.91105H94.3234H91.9728H89.599H87.0041V32.839H95.9408V26.7551H96.5692V26.7435ZM66.6172 32.839H84.9794V26.0921H75.519V24.5798H84.6186V18.1935H75.519V16.6696H84.9794V9.92268H66.6172V32.839Z" fill="#0090D3"/>
<path d="M66.6532 45.8301V38.5921H67.6752L70.3772 42.4001L73.0792 38.5921H74.1152V45.8301H73.0232V40.3141L70.3492 43.9821L67.7032 40.3141V45.8301H66.6532ZM78.7923 45.9841C78.055 45.9841 77.4203 45.7834 76.8883 45.3821C76.3563 44.9807 76.0903 44.4207 76.0903 43.7021C76.0903 42.9461 76.3703 42.3627 76.9303 41.9521C77.4903 41.5414 78.2416 41.3361 79.1843 41.3361C79.931 41.3361 80.6683 41.4387 81.3963 41.6441V41.4201C81.3963 40.7854 81.2096 40.3001 80.8363 39.9641C80.463 39.6281 79.9356 39.4601 79.2543 39.4601C78.545 39.4601 77.8123 39.6327 77.0563 39.9781L76.7343 39.0961C77.6303 38.6854 78.5076 38.4801 79.3663 38.4801C80.393 38.4801 81.1723 38.7461 81.7043 39.2781C82.2083 39.7821 82.4603 40.4914 82.4603 41.4061V45.8301H81.3963V44.7521C80.7523 45.5734 79.8843 45.9841 78.7923 45.9841ZM79.0023 45.1161C79.6743 45.1161 80.2436 44.9341 80.7103 44.5701C81.177 44.2061 81.4103 43.7394 81.4103 43.1701V42.4981C80.701 42.2927 79.9963 42.1901 79.2963 42.1901C78.6336 42.1901 78.1156 42.3254 77.7423 42.5961C77.369 42.8574 77.1823 43.2167 77.1823 43.6741C77.1823 44.1127 77.355 44.4627 77.7003 44.7241C78.055 44.9854 78.489 45.1161 79.0023 45.1161ZM88.1177 45.9981C87.0724 45.9981 86.1904 45.6294 85.4717 44.8921C84.7624 44.1454 84.4077 43.2541 84.4077 42.2181C84.4077 41.1821 84.7624 40.2954 85.4717 39.5581C86.1904 38.8114 87.0724 38.4381 88.1177 38.4381C89.2377 38.4381 90.2037 38.8674 91.0157 39.7261L90.3297 40.4541C89.6577 39.7447 88.9157 39.3901 88.1037 39.3901C87.3757 39.3901 86.7597 39.6654 86.2557 40.2161C85.7611 40.7574 85.5137 41.4247 85.5137 42.2181C85.5137 43.0021 85.7657 43.6694 86.2697 44.2201C86.7831 44.7614 87.4177 45.0321 88.1737 45.0321C88.9484 45.0321 89.6764 44.6681 90.3577 43.9401L91.0717 44.5981C90.2317 45.5314 89.2471 45.9981 88.1177 45.9981ZM96.2278 45.9981C95.1824 45.9981 94.3004 45.6294 93.5818 44.8921C92.8724 44.1454 92.5178 43.2541 92.5178 42.2181C92.5178 41.1821 92.8724 40.2954 93.5818 39.5581C94.3004 38.8114 95.1824 38.4381 96.2278 38.4381C97.3478 38.4381 98.3138 38.8674 99.1258 39.7261L98.4398 40.4541C97.7678 39.7447 97.0258 39.3901 96.2138 39.3901C95.4858 39.3901 94.8698 39.6654 94.3658 40.2161C93.8711 40.7574 93.6238 41.4247 93.6238 42.2181C93.6238 43.0021 93.8758 43.6694 94.3798 44.2201C94.8931 44.7614 95.5278 45.0321 96.2838 45.0321C97.0584 45.0321 97.7864 44.6681 98.4678 43.9401L99.1818 44.5981C98.3418 45.5314 97.3571 45.9981 96.2278 45.9981ZM103.232 45.9841C102.494 45.9841 101.86 45.7834 101.328 45.3821C100.796 44.9807 100.53 44.4207 100.53 43.7021C100.53 42.9461 100.81 42.3627 101.37 41.9521C101.93 41.5414 102.681 41.3361 103.624 41.3361C104.37 41.3361 105.108 41.4387 105.836 41.6441V41.4201C105.836 40.7854 105.649 40.3001 105.276 39.9641C104.902 39.6281 104.375 39.4601 103.694 39.4601C102.984 39.4601 102.252 39.6327 101.496 39.9781L101.174 39.0961C102.07 38.6854 102.947 38.4801 103.806 38.4801C104.832 38.4801 105.612 38.7461 106.144 39.2781C106.648 39.7821 106.9 40.4914 106.9 41.4061V45.8301H105.836V44.7521C105.192 45.5734 104.324 45.9841 103.232 45.9841ZM103.442 45.1161C104.114 45.1161 104.683 44.9341 105.15 44.5701C105.616 44.2061 105.85 43.7394 105.85 43.1701V42.4981C105.14 42.2927 104.436 42.1901 103.736 42.1901C103.073 42.1901 102.555 42.3254 102.182 42.5961C101.808 42.8574 101.622 43.2167 101.622 43.6741C101.622 44.1127 101.794 44.4627 102.14 44.7241C102.494 44.9854 102.928 45.1161 103.442 45.1161ZM108.371 45.8301L111.339 41.6861L108.525 38.5921H109.827L113.509 42.7921V38.5921H114.587V42.7921L118.269 38.5921H119.571L116.757 41.6861L119.725 45.8301H118.465L116.057 42.4561L114.587 44.0661V45.8301H113.509V44.0661L112.039 42.4561L109.631 45.8301H108.371ZM121.315 45.8301V38.5921H122.393V41.7141H126.565V38.5921H127.643V45.8301H126.565V42.6661H122.393V45.8301H121.315ZM136.17 44.8921C135.442 45.6294 134.541 45.9981 133.468 45.9981C132.394 45.9981 131.498 45.6294 130.78 44.8921C130.07 44.1547 129.716 43.2634 129.716 42.2181C129.716 41.1821 130.075 40.2954 130.794 39.5581C131.522 38.8114 132.422 38.4381 133.496 38.4381C134.569 38.4381 135.465 38.8067 136.184 39.5441C136.902 40.2814 137.262 41.1727 137.262 42.2181C137.262 43.2541 136.898 44.1454 136.17 44.8921ZM133.496 45.0321C134.27 45.0321 134.905 44.7614 135.4 44.2201C135.904 43.6787 136.156 43.0114 136.156 42.2181C136.156 41.4341 135.894 40.7667 135.372 40.2161C134.858 39.6654 134.224 39.3901 133.468 39.3901C132.693 39.3901 132.058 39.6654 131.564 40.2161C131.069 40.7574 130.822 41.4247 130.822 42.2181C130.822 43.0021 131.078 43.6694 131.592 44.2201C132.105 44.7614 132.74 45.0321 133.496 45.0321ZM142.491 45.9981C141.473 45.9981 140.615 45.6481 139.915 44.9481C139.224 44.2387 138.879 43.3287 138.879 42.2181C138.879 41.1634 139.21 40.2721 139.873 39.5441C140.535 38.8067 141.361 38.4381 142.351 38.4381C143.387 38.4381 144.208 38.8021 144.815 39.5301C145.421 40.2581 145.725 41.1727 145.725 42.2741C145.725 42.4141 145.72 42.5401 145.711 42.6521H139.971C140.045 43.3894 140.321 43.9774 140.797 44.4161C141.282 44.8454 141.856 45.0601 142.519 45.0601C143.387 45.0601 144.147 44.7194 144.801 44.0381L145.473 44.6401C144.661 45.5454 143.667 45.9981 142.491 45.9981ZM139.971 41.7841H144.633C144.567 41.0841 144.334 40.5054 143.933 40.0481C143.541 39.5814 143.004 39.3481 142.323 39.3481C141.707 39.3481 141.179 39.5767 140.741 40.0341C140.302 40.4914 140.045 41.0747 139.971 41.7841ZM158.039 44.8921C157.311 45.6294 156.41 45.9981 155.337 45.9981C154.264 45.9981 153.368 45.6294 152.649 44.8921C151.94 44.1547 151.585 43.2634 151.585 42.2181C151.585 41.1821 151.944 40.2954 152.663 39.5581C153.391 38.8114 154.292 38.4381 155.365 38.4381C156.438 38.4381 157.334 38.8067 158.053 39.5441C158.772 40.2814 159.131 41.1727 159.131 42.2181C159.131 43.2541 158.767 44.1454 158.039 44.8921ZM155.365 45.0321C156.14 45.0321 156.774 44.7614 157.269 44.2201C157.773 43.6787 158.025 43.0114 158.025 42.2181C158.025 41.4341 157.764 40.7667 157.241 40.2161C156.728 39.6654 156.093 39.3901 155.337 39.3901C154.562 39.3901 153.928 39.6654 153.433 40.2161C152.938 40.7574 152.691 41.4247 152.691 42.2181C152.691 43.0021 152.948 43.6694 153.461 44.2201C153.974 44.7614 154.609 45.0321 155.365 45.0321ZM164.598 45.9981C163.487 45.9981 162.596 45.6341 161.924 44.9061C161.261 44.1687 160.93 43.1747 160.93 41.9241C160.93 41.4667 160.939 41.0794 160.958 40.7621C160.976 40.4354 161.014 40.0761 161.07 39.6841C161.126 39.2921 161.214 38.9561 161.336 38.6761C161.457 38.3961 161.611 38.1207 161.798 37.8501C161.994 37.5794 162.246 37.3507 162.554 37.1641C162.862 36.9774 163.221 36.8374 163.632 36.7441L167.664 35.7921L167.874 36.7021L163.954 37.6681C163.226 37.8547 162.703 38.1534 162.386 38.5641C162.078 38.9654 161.896 39.5254 161.84 40.2441C162.456 39.1987 163.454 38.6761 164.836 38.6761C165.788 38.6761 166.604 39.0307 167.286 39.7401C167.967 40.4401 168.308 41.2847 168.308 42.2741C168.308 43.3007 167.953 44.1781 167.244 44.9061C166.534 45.6341 165.652 45.9981 164.598 45.9981ZM164.626 45.0321C165.363 45.0321 165.974 44.7707 166.46 44.2481C166.945 43.7161 167.188 43.0674 167.188 42.3021C167.188 41.5461 166.936 40.9021 166.432 40.3701C165.937 39.8381 165.326 39.5721 164.598 39.5721C163.86 39.5721 163.249 39.8381 162.764 40.3701C162.278 40.8927 162.036 41.5367 162.036 42.3021C162.036 43.0581 162.283 43.7021 162.778 44.2341C163.282 44.7661 163.898 45.0321 164.626 45.0321ZM176.378 44.8921C175.65 45.6294 174.75 45.9981 173.676 45.9981C172.603 45.9981 171.707 45.6294 170.988 44.8921C170.279 44.1547 169.924 43.2634 169.924 42.2181C169.924 41.1821 170.284 40.2954 171.002 39.5581C171.73 38.8114 172.631 38.4381 173.704 38.4381C174.778 38.4381 175.674 38.8067 176.392 39.5441C177.111 40.2814 177.47 41.1727 177.47 42.2181C177.47 43.2541 177.106 44.1454 176.378 44.8921ZM173.704 45.0321C174.479 45.0321 175.114 44.7614 175.608 44.2201C176.112 43.6787 176.364 43.0114 176.364 42.2181C176.364 41.4341 176.103 40.7667 175.58 40.2161C175.067 39.6654 174.432 39.3901 173.676 39.3901C172.902 39.3901 172.267 39.6654 171.772 40.2161C171.278 40.7574 171.03 41.4247 171.03 42.2181C171.03 43.0021 171.287 43.6694 171.8 44.2201C172.314 44.7614 172.948 45.0321 173.704 45.0321ZM179.535 48.0701V38.5921H180.613V40.0481C181.341 38.9747 182.265 38.4381 183.385 38.4381C184.309 38.4381 185.116 38.7834 185.807 39.4741C186.498 40.1554 186.843 41.0701 186.843 42.2181C186.843 43.3474 186.498 44.2574 185.807 44.9481C185.116 45.6387 184.309 45.9841 183.385 45.9841C182.246 45.9841 181.322 45.4707 180.613 44.4441V48.0701H179.535ZM183.189 45.0181C183.917 45.0181 184.524 44.7661 185.009 44.2621C185.494 43.7487 185.737 43.0627 185.737 42.2041C185.737 41.3734 185.49 40.7014 184.995 40.1881C184.5 39.6654 183.898 39.4041 183.189 39.4041C182.489 39.4041 181.878 39.6701 181.355 40.2021C180.832 40.7341 180.571 41.4061 180.571 42.2181C180.571 43.0301 180.832 43.7021 181.355 44.2341C181.878 44.7567 182.489 45.0181 183.189 45.0181ZM190.064 48.1121C189.541 48.1121 189.028 47.9907 188.524 47.7481L188.888 46.8941C189.233 47.0714 189.611 47.1601 190.022 47.1601C190.349 47.1601 190.624 47.0574 190.848 46.8521C191.072 46.6561 191.291 46.3061 191.506 45.8021L188.216 38.5921H189.406L192.038 44.6261L194.362 38.5921H195.51L192.472 46.0681C192.164 46.8054 191.823 47.3281 191.45 47.6361C191.077 47.9534 190.615 48.1121 190.064 48.1121ZM196.263 47.6361V44.8781H197.047C197.691 43.7021 198.013 42.0267 198.013 39.8521V38.5921H203.165V44.8781H204.257L204.089 47.6361H203.193V45.8301H197.341L197.145 47.6361H196.263ZM198.195 44.8781H202.087V39.5441H199.049V40.5521C199.049 42.3721 198.765 43.8141 198.195 44.8781ZM211.854 44.8921C211.126 45.6294 210.225 45.9981 209.152 45.9981C208.078 45.9981 207.182 45.6294 206.464 44.8921C205.754 44.1547 205.4 43.2634 205.4 42.2181C205.4 41.1821 205.759 40.2954 206.478 39.5581C207.206 38.8114 208.106 38.4381 209.18 38.4381C210.253 38.4381 211.149 38.8067 211.868 39.5441C212.586 40.2814 212.946 41.1727 212.946 42.2181C212.946 43.2541 212.582 44.1454 211.854 44.8921ZM209.18 45.0321C209.954 45.0321 210.589 44.7614 211.084 44.2201C211.588 43.6787 211.84 43.0114 211.84 42.2181C211.84 41.4341 211.578 40.7667 211.056 40.2161C210.542 39.6654 209.908 39.3901 209.152 39.3901C208.377 39.3901 207.742 39.6654 207.248 40.2161C206.753 40.7574 206.506 41.4247 206.506 42.2181C206.506 43.0021 206.762 43.6694 207.276 44.2201C207.789 44.7614 208.424 45.0321 209.18 45.0321ZM215.01 45.8301V38.5921H218.51C219.229 38.5921 219.803 38.7554 220.232 39.0821C220.662 39.4087 220.876 39.8474 220.876 40.3981C220.876 41.1727 220.475 41.7281 219.672 42.0641C220.736 42.3534 221.268 42.9507 221.268 43.8561C221.268 44.4627 221.03 44.9434 220.554 45.2981C220.078 45.6527 219.439 45.8301 218.636 45.8301H215.01ZM216.088 44.9061H218.496C219.01 44.9061 219.416 44.7987 219.714 44.5841C220.013 44.3694 220.162 44.0707 220.162 43.6881C220.162 43.3334 220.004 43.0581 219.686 42.8621C219.378 42.6661 218.935 42.5681 218.356 42.5681H216.088V44.9061ZM216.088 41.7001H218.314C218.762 41.7001 219.117 41.6021 219.378 41.4061C219.649 41.2007 219.784 40.9114 219.784 40.5381C219.784 40.2301 219.658 39.9827 219.406 39.7961C219.154 39.6094 218.8 39.5161 218.342 39.5161H216.088V41.7001ZM225.481 45.9841C224.744 45.9841 224.109 45.7834 223.577 45.3821C223.045 44.9807 222.779 44.4207 222.779 43.7021C222.779 42.9461 223.059 42.3627 223.619 41.9521C224.179 41.5414 224.931 41.3361 225.873 41.3361C226.62 41.3361 227.357 41.4387 228.085 41.6441V41.4201C228.085 40.7854 227.899 40.3001 227.525 39.9641C227.152 39.6281 226.625 39.4601 225.943 39.4601C225.234 39.4601 224.501 39.6327 223.745 39.9781L223.423 39.0961C224.319 38.6854 225.197 38.4801 226.055 38.4801C227.082 38.4801 227.861 38.7461 228.393 39.2781C228.897 39.7821 229.149 40.4914 229.149 41.4061V45.8301H228.085V44.7521C227.441 45.5734 226.573 45.9841 225.481 45.9841ZM225.691 45.1161C226.363 45.1161 226.933 44.9341 227.399 44.5701C227.866 44.2061 228.099 43.7394 228.099 43.1701V42.4981C227.39 42.2927 226.685 42.1901 225.985 42.1901C225.323 42.1901 224.805 42.3254 224.431 42.5961C224.058 42.8574 223.871 43.2167 223.871 43.6741C223.871 44.1127 224.044 44.4627 224.389 44.7241C224.744 44.9854 225.178 45.1161 225.691 45.1161ZM231.545 45.8301V38.5921H232.623V41.7141H236.795V38.5921H237.873V45.8301H236.795V42.6661H232.623V45.8301H231.545ZM240.393 45.8301V38.5921H241.471V44.3181L245.769 38.5921H246.819V45.8301H245.741V40.1041L241.429 45.8301H240.393ZM252.501 45.9981C251.484 45.9981 250.625 45.6481 249.925 44.9481C249.235 44.2387 248.889 43.3287 248.889 42.2181C248.889 41.1634 249.221 40.2721 249.883 39.5441C250.546 38.8067 251.372 38.4381 252.361 38.4381C253.397 38.4381 254.219 38.8021 254.825 39.5301C255.432 40.2581 255.735 41.1727 255.735 42.2741C255.735 42.4141 255.731 42.5401 255.721 42.6521H249.981C250.056 43.3894 250.331 43.9774 250.807 44.4161C251.293 44.8454 251.867 45.0601 252.529 45.0601C253.397 45.0601 254.158 44.7194 254.811 44.0381L255.483 44.6401C254.671 45.5454 253.677 45.9981 252.501 45.9981ZM249.981 41.7841H254.643C254.578 41.0841 254.345 40.5054 253.943 40.0481C253.551 39.5814 253.015 39.3481 252.333 39.3481C251.717 39.3481 251.19 39.5767 250.751 40.0341C250.313 40.4914 250.056 41.0747 249.981 41.7841Z" fill="#333333"/>
</g>
<defs>
<clipPath id="clip0">
<rect width="256" height="57" fill="white"/>
</clipPath>
</defs>
</svg>
