<svg width="23" height="24" viewBox="0 0 23 24" xmlns="http://www.w3.org/2000/svg">
<path d="M0.986752 0.731445H5.40706C5.86644 0.731445 6.26019 1.05957 6.34456 1.50957L8.70706 14.0486H18.9586L20.7586 7.55176H12.8977C12.368 7.55176 11.9414 7.1252 11.9414 6.59551C11.9414 6.06582 12.368 5.63926 12.8977 5.63926H22.0149C22.868 5.63926 23.0649 6.39863 22.9336 6.84863L20.6039 15.258C20.4914 15.6705 20.1117 15.9564 19.6852 15.9564H7.91488C7.4555 15.9564 7.06175 15.6283 6.97738 15.1783L4.61019 2.64395H0.982065C0.452377 2.64395 0.0258141 2.21738 0.0258141 1.6877C0.0305023 1.15801 0.457066 0.731445 0.986752 0.731445Z"/>
<path d="M10.1422 17.5547C11.6891 17.5547 12.9453 18.8344 12.9453 20.4141C12.9453 21.9891 11.6891 23.2734 10.1422 23.2734C8.59532 23.2734 7.33907 21.9938 7.33907 20.4141C7.33907 18.8344 8.59532 17.5547 10.1422 17.5547ZM10.1422 21.3563C10.6344 21.3563 11.0328 20.9297 11.0328 20.4094C11.0328 19.8891 10.6344 19.4625 10.1422 19.4625C9.65001 19.4625 9.25157 19.8891 9.25157 20.4094C9.25157 20.9344 9.65001 21.3563 10.1422 21.3563Z" />
<path d="M17.5621 17.5547C19.109 17.5547 20.3652 18.8344 20.3652 20.4141C20.3652 21.9891 19.109 23.2734 17.5621 23.2734C16.0152 23.2734 14.759 21.9938 14.759 20.4141C14.759 18.8344 16.0152 17.5547 17.5621 17.5547ZM17.5621 21.3563C18.0543 21.3563 18.4527 20.9297 18.4527 20.4094C18.4527 19.8891 18.0543 19.4625 17.5621 19.4625C17.0699 19.4625 16.6715 19.8891 16.6715 20.4094C16.6715 20.9344 17.0699 21.3563 17.5621 21.3563Z" />
</svg>
