<svg width="24" height="25" viewBox="0 0 24 25" fill="none" xmlns="http://www.w3.org/2000/svg">
<path fill-rule="evenodd" clip-rule="evenodd" d="M17 3.67578H7C4.23858 3.67578 2 5.91436 2 8.67578V16.6758C2 19.4372 4.23858 21.6758 7 21.6758H16.9919L17.2087 21.671C19.8687 21.5552 21.9901 19.3643 21.9939 16.6772L21.997 8.68178L22 8.67376C22 5.91179 19.7607 3.67325 17 3.67578ZM17.0009 5.67578L17.1771 5.68072C18.6929 5.76723 19.907 6.98096 19.9949 8.49748L19.998 8.67528L19.9939 16.6753C19.9916 18.3313 18.6479 19.6743 16.991 19.6758H7C5.34315 19.6758 4 18.3326 4 16.6758V8.67578C4 7.01893 5.34315 5.67578 7 5.67578L17.0009 5.67578Z" fill="#212121"/>
<g opacity="0.5">
<path fill-rule="evenodd" clip-rule="evenodd" d="M7.29289 8.96867C7.65338 8.60819 8.22061 8.58046 8.6129 8.88549L8.70711 8.96867L9.87868 10.1402C11.0034 11.265 12.799 11.3099 13.9773 10.2752L14.1213 10.1402L15.2929 8.96867C15.6834 8.57815 16.3166 8.57815 16.7071 8.96867C17.0676 9.32916 17.0953 9.89639 16.7903 10.2887L16.7071 10.3829L15.5355 11.5545C13.6421 13.4479 10.6078 13.5053 8.64525 11.7266L8.46447 11.5545L7.29289 10.3829C6.90237 9.99236 6.90237 9.3592 7.29289 8.96867Z" fill="#212121"/>
</g>
</svg>
