<svg width="24" height="25" viewBox="0 0 24 25" fill="none" xmlns="http://www.w3.org/2000/svg">
<path fill-rule="evenodd" clip-rule="evenodd" d="M14 3.67578H10C7.23858 3.67578 5 5.91436 5 8.67578V16.6758C5 19.4372 7.23858 21.6758 10 21.6758H13.9946L14.2114 21.671C16.8717 21.556 18.9934 19.3644 18.9959 16.6767L19 8.67443C19 5.91264 16.7609 3.67409 14 3.67578ZM14.0006 5.67578L14.1768 5.68077C15.6928 5.76774 16.907 6.98165 16.9949 8.49815L16.9986 8.67544L16.9959 16.6754C16.9944 18.3318 15.6509 19.6748 13.994 19.6758H10C8.34315 19.6758 7 18.3326 7 16.6758V8.67578C7 7.01893 8.34315 5.67578 10 5.67578L14.0006 5.67578Z" fill="#212121"/>
<g opacity="0.5">
<circle cx="12" cy="16.6758" r="1" fill="#212121"/>
</g>
</svg>
