<svg width="19" height="19" viewBox="0 0 19 19" fill="none" xmlns="http://www.w3.org/2000/svg">
<path fill-rule="evenodd" clip-rule="evenodd" d="M17.4755 12.4712C16.3247 12.4734 15.181 12.2913 14.0877 11.9319C13.5573 11.7508 12.9052 11.9166 12.5816 12.2491L10.4451 13.8621C7.96768 12.5395 6.44154 11.0136 5.13708 8.55495L6.70235 6.4741C6.90234 6.27457 7.04343 6.02375 7.11008 5.74922C7.17673 5.47469 7.16636 5.1871 7.08012 4.91808C6.71967 3.82308 6.53679 2.67745 6.53843 1.52465C6.53799 1.12044 6.37723 0.732904 6.09142 0.447073C5.80561 0.161242 5.41809 0.000458402 5.01387 0H1.5246C1.12039 0.000458354 0.732871 0.161233 0.447052 0.447052C0.161233 0.732871 0.000458354 1.12039 0 1.5246C0 11.1605 7.83938 19 17.4755 19C17.8797 18.9996 18.2672 18.8388 18.553 18.553C18.8388 18.2672 18.9996 17.8797 19 17.4755V13.9957C18.9995 13.5915 18.8387 13.2041 18.5529 12.9183C18.2671 12.6325 17.8797 12.4718 17.4755 12.4712Z" fill="#0090D3"/>
</svg>
