<svg width="100" height="100" viewBox="0 0 100 100" fill="none" xmlns="http://www.w3.org/2000/svg">
<path fill-rule="evenodd" clip-rule="evenodd" d="M50 100C22.3858 100 0 77.6142 0 50C0 22.3858 22.3858 0 50 0C77.6142 0 100 22.3858 100 50C100 77.6142 77.6142 100 50 100ZM50 95C74.8528 95 95 74.8528 95 50C95 25.1472 74.8528 5 50 5C25.1472 5 5 25.1472 5 50C5 74.8528 25.1472 95 50 95Z" fill="white"/>
<path fill-rule="evenodd" clip-rule="evenodd" d="M38.2 66.691V34.3087C38.2 33.0612 39.2469 32.05 40.5382 32.05C40.9866 32.05 41.4255 32.1745 41.8027 32.4087L67.8759 48.5999C68.9622 49.2744 69.2767 50.6719 68.5784 51.7213C68.3972 51.9934 68.1577 52.2249 67.8759 52.3998L41.8027 68.591C40.7164 69.2656 39.2697 68.9618 38.5714 67.9124C38.3289 67.5481 38.2 67.1241 38.2 66.691Z" fill="white"/>
</svg>
