<svg width="16" height="16" viewBox="0 0 16 16" fill="none" xmlns="http://www.w3.org/2000/svg">
<path d="M11.7822 0.520139C11.3335 0.291885 10.7847 0.470732 10.5565 0.919584L3.77694 14.254C3.54874 14.7028 3.72759 15.2515 4.17638 15.4797C4.30874 15.5469 4.44979 15.5789 4.58877 15.5789C4.92094 15.5789 5.24115 15.3967 5.40207 15.0802L12.1816 1.74582C12.4098 1.29703 12.231 0.748333 11.7822 0.520139Z" fill="#F29D00"/>
<path d="M6.91436 4.91135C6.91436 3.00503 5.36343 1.4541 3.45712 1.4541C1.55093 1.4541 0 3.00503 0 4.91135C0 6.8176 1.55093 8.36853 3.45718 8.36853C5.3635 8.36853 6.91436 6.8176 6.91436 4.91135ZM3.45718 6.54541C2.5562 6.54541 1.82312 5.81233 1.82312 4.91135C1.82312 4.0103 2.5562 3.27722 3.45718 3.27722C4.35823 3.27722 5.0913 4.01024 5.0913 4.91135C5.09124 5.81233 4.35823 6.54541 3.45718 6.54541Z" fill="#F29D00"/>
<path d="M12.5432 7.63135C10.6369 7.63135 9.08594 9.18227 9.08594 11.0885C9.08594 12.9948 10.6368 14.5457 12.5432 14.5457C14.4494 14.5457 16.0004 12.9948 16.0004 11.0885C16.0004 9.18221 14.4495 7.63135 12.5432 7.63135ZM12.5432 12.7225C11.6421 12.7225 10.9091 11.9895 10.9091 11.0885C10.9091 10.1875 11.6421 9.45441 12.5432 9.45441C13.4442 9.45441 14.1773 10.1875 14.1773 11.0885C14.1773 11.9895 13.4442 12.7225 12.5432 12.7225Z" fill="#F29D00"/>
</svg>
