<svg width="20" height="20" viewBox="0 0 20 20" fill="none" xmlns="http://www.w3.org/2000/svg">
<path fill-rule="evenodd" clip-rule="evenodd" d="M10 2.7998C7.102 2.7998 3.3406 3.52915 3.3406 3.52915L3.33113 3.54002C2.01123 3.75205 1 4.89128 1 6.27677V13.7215C1.00266 15.0897 1.99367 16.2521 3.33789 16.465L3.3406 16.4691C3.3406 16.4691 7.102 17.1998 10 17.1998C12.898 17.1998 16.6594 16.4691 16.6594 16.4691C18.0065 16.2553 18.9986 15.0912 19 13.7228V6.27677C18.998 4.90936 18.0068 3.74622 16.6621 3.53323C16.6594 3.52915 12.898 2.7998 10 2.7998ZM8.2 6.8498L13.6 9.9998L8.2 13.1498V6.8498Z" fill="white"/>
</svg>
