<svg width="71" height="71" viewBox="0 0 71 71" fill="none" xmlns="http://www.w3.org/2000/svg">
<rect width="71" height="71" rx="20" fill="#0090D3"/>
<g clip-path="url(#clip0)">
<path d="M29.6127 48.9687C29.6127 49.8812 28.8662 50.6277 27.9537 50.6277H21.0965C20.1841 50.6277 19.4375 49.8812 19.4375 48.9687V41.4479C19.4375 40.5355 20.1841 39.7889 21.0965 39.7889H27.9537C28.8662 39.7889 29.6127 40.5355 29.6127 41.4479V48.9687Z" fill="white"/>
<path d="M41.8063 48.9687C41.8063 49.8812 41.0598 50.6277 40.1473 50.6277H33.2902C32.3777 50.6277 31.6312 49.8812 31.6312 48.9687V37.4664C31.6312 36.5539 32.3777 35.8074 33.2902 35.8074H40.1473C41.0598 35.8074 41.8063 36.5539 41.8063 37.4664V48.9687Z" fill="white"/>
<path d="M54 48.9687C54 49.8811 53.2534 50.6277 52.341 50.6277H45.4838C44.5713 50.6277 43.8248 49.8811 43.8248 48.9687V33.0423C43.8248 32.1298 44.5713 31.3833 45.4838 31.3833H52.341C53.2534 31.3833 54 32.1298 54 33.0423V48.9687Z" fill="white"/>
<path d="M52.5644 19.4035L45.1128 21.2165C44.5215 21.3596 44.3898 21.8286 44.8199 22.2587L46.41 23.8117C46.5435 23.9639 46.3851 24.1663 46.2595 24.252C45.2582 24.9355 43.6692 25.9384 41.4728 27.0843C29.5153 33.3229 19.6583 32.9402 19.5101 32.9335C18.7189 32.8933 18.0424 33.5029 18.0014 34.2954C17.9606 35.0884 18.5703 35.7645 19.3633 35.8053C19.4215 35.8083 19.6586 35.819 20.0571 35.819C22.6127 35.819 31.7929 35.3781 42.803 29.6339C45.4082 28.2747 47.2138 27.1025 48.2682 26.3603C48.4173 26.2554 48.6771 26.0744 48.9168 26.3185L50.656 28.0576C51.0861 28.4877 51.5529 28.3553 51.6936 27.7635L53.3841 20.2194C53.5245 19.6275 53.1556 19.2604 52.5644 19.4035Z" fill="white"/>
</g>
<defs>
<clipPath id="clip0">
<rect width="36" height="36" fill="white" transform="translate(18 17)"/>
</clipPath>
</defs>
</svg>
