<svg width="71" height="71" viewBox="0 0 71 71" fill="none" xmlns="http://www.w3.org/2000/svg">
<rect width="71" height="71" rx="20" fill="#0090D3"/>
<path d="M53.9859 42.4564V36.4142C53.9859 35.5143 53.7291 34.6144 53.3431 33.8431L49.4964 27.2867C49.1107 26.5153 48.2108 26.0011 47.311 26.0011H41.526C40.6262 26.0011 39.8547 26.7724 39.8547 27.6723V41.4279H38.5691V23.43C38.5691 22.0158 37.4122 20.8588 35.998 20.8588H18V43.999H21.8567C22.4995 41.8136 24.4278 40.1423 26.8703 40.1423C29.313 40.1423 31.3697 41.8136 31.8841 43.999H41.2689C41.9116 41.8136 43.84 40.1423 46.2824 40.1423C48.3395 40.1423 50.0104 41.2994 50.7819 42.9706C51.1677 43.6134 51.8007 43.999 52.4435 43.999C53.3431 43.999 54.1146 43.2277 53.9859 42.4564ZM42.4258 35.0001V28.5722H47.5681L51.2961 35.0001H42.4258Z" fill="white"/>
<path d="M46.2825 41.4279C44.0971 41.4279 42.4258 43.0991 42.4258 45.2846C42.4258 47.47 44.0971 49.1413 46.2825 49.1413C48.4679 49.1413 50.1392 47.47 50.1392 45.2846C50.1392 43.0991 48.4679 41.4279 46.2825 41.4279ZM46.2825 47.0844C45.2539 47.0844 44.4828 46.313 44.4828 45.2846C44.4828 44.2561 45.254 43.4848 46.2825 43.4848C47.311 43.4848 48.0821 44.2561 48.0821 45.2846C48.0821 46.313 47.311 47.0844 46.2825 47.0844Z" fill="white"/>
<path d="M26.999 41.4279C24.8136 41.4279 23.1423 43.0991 23.1423 45.2846C23.1423 47.47 24.8136 49.1413 26.999 49.1413C29.1844 49.1413 30.8557 47.47 30.8557 45.2846C30.8557 43.0991 29.1844 41.4279 26.999 41.4279ZM26.999 47.0844C25.9704 47.0844 25.1993 46.313 25.1993 45.2846C25.1993 44.2561 25.9705 43.4848 26.999 43.4848C28.0274 43.4848 28.7986 44.2561 28.7986 45.2846C28.7986 46.313 28.0275 47.0844 26.999 47.0844Z" fill="white"/>
<path d="M26.999 45.9274C27.354 45.9274 27.6418 45.6396 27.6418 45.2846C27.6418 44.9296 27.354 44.6418 26.999 44.6418C26.644 44.6418 26.3562 44.9296 26.3562 45.2846C26.3562 45.6396 26.644 45.9274 26.999 45.9274Z" fill="white"/>
<path d="M46.2825 45.9274C46.6375 45.9274 46.9253 45.6396 46.9253 45.2846C46.9253 44.9296 46.6375 44.6418 46.2825 44.6418C45.9275 44.6418 45.6397 44.9296 45.6397 45.2846C45.6397 45.6396 45.9275 45.9274 46.2825 45.9274Z" fill="white"/>
</svg>
