<svg width="71" height="71" viewBox="0 0 71 71" fill="none" xmlns="http://www.w3.org/2000/svg">
<rect width="71" height="71" rx="20" fill="#0090D3"/>
<g clip-path="url(#clip0)">
<path d="M34.6575 27.9109L36.4421 24.0888L45.9976 28.5501L44.2131 32.3723L34.6575 27.9109Z" fill="white"/>
<path d="M22.7155 41.0171C22.4828 41.5175 22.6995 42.1118 23.1997 42.3451L40.5055 50.4149C41.0061 50.6483 41.601 50.4318 41.8344 49.9312L52.5795 26.8885C52.8124 26.3891 52.5973 25.7953 52.0985 25.5609L34.7922 17.4271C34.2909 17.1915 33.6936 17.4082 33.4601 17.9105L22.7155 41.0171ZM40.3041 45.7264C40.0707 46.2269 39.4757 46.4435 38.9751 46.2101L27.4055 40.8152C26.905 40.5818 26.6884 39.9868 26.9218 39.4862L26.9681 39.3871C27.2015 38.8866 27.7964 38.67 28.297 38.9034L39.8666 44.2984C40.3671 44.5318 40.5837 45.1267 40.3503 45.6273L40.3041 45.7264ZM42.0869 41.903C41.8535 42.4035 41.2585 42.6201 40.758 42.3867L29.1884 36.9916C28.6878 36.7582 28.4713 36.1633 28.7047 35.6627L28.7509 35.5636C28.9843 35.0631 29.5793 34.8465 30.0798 35.0799L41.6494 40.475C42.15 40.7084 42.3665 41.3034 42.1331 41.8039L42.0869 41.903ZM43.8698 38.0795C43.6364 38.5801 43.0414 38.7967 42.5409 38.5632L30.9714 33.1682C30.4709 32.9348 30.2543 32.3398 30.4877 31.8393L30.5339 31.7402C30.7673 31.2396 31.3623 31.0231 31.8629 31.2565L43.4324 36.6515C43.9329 36.8849 44.1494 37.4799 43.916 37.9804L43.8698 38.0795ZM47.8897 27.0928C48.3902 27.3262 48.6068 27.9211 48.3734 28.4217L45.6528 34.256C45.4194 34.7566 44.8244 34.9731 44.3239 34.7397L32.7543 29.3447C32.2538 29.1113 32.0372 28.5163 32.2706 28.0157L34.9913 22.1815C35.2247 21.681 35.8196 21.4644 36.3202 21.6978L47.8897 27.0928Z" fill="white"/>
<path d="M38.2344 52.1963C38.2344 51.884 38.0534 51.5999 37.7703 51.4679L20.3963 43.3667C19.8958 43.1333 19.6792 42.5383 19.9126 42.0378L26.9571 26.9304C27.2662 26.2675 26.7822 25.5078 26.0508 25.5078H18C17.4477 25.5078 17 25.9555 17 26.5078V52C17 52.5523 17.4477 53 18 53H37.4307C37.8746 53 38.2344 52.6402 38.2344 52.1963Z" fill="white"/>
</g>
<defs>
<clipPath id="clip0">
<rect width="36" height="36" fill="white" transform="translate(17 17)"/>
</clipPath>
</defs>
</svg>
