<svg width="71" height="71" viewBox="0 0 71 71" fill="none" xmlns="http://www.w3.org/2000/svg">
<rect width="71" height="71" rx="20" fill="#0090D3"/>
<g clip-path="url(#clip0)">
<path d="M52.8864 33.0015C52.8295 32.4955 52.2393 32.1148 51.729 32.1148C50.0796 32.1148 48.6159 31.1468 48.002 29.6484C47.3753 28.1141 47.7797 26.3251 49.0085 25.1978C49.3955 24.8439 49.4427 24.2514 49.1183 23.8401C48.2738 22.768 47.3145 21.7995 46.2667 20.9602C45.8568 20.6313 45.2544 20.6771 44.8987 21.0709C43.8258 22.2591 41.8986 22.7006 40.4093 22.0792C38.86 21.4274 37.8822 19.857 37.9782 18.1713C38.0098 17.6415 37.6225 17.1812 37.0945 17.1197C35.7499 16.964 34.3934 16.9595 33.0448 17.1091C32.5236 17.1667 32.1365 17.6162 32.1538 18.1393C32.2122 19.8084 31.2233 21.3511 29.689 21.9796C28.2176 22.5807 26.3037 22.1424 25.2331 20.9647C24.8792 20.5767 24.2874 20.5291 23.8747 20.8509C22.7961 21.6973 21.8151 22.6665 20.9629 23.7298C20.6308 24.1432 20.6798 24.7423 21.0701 25.0974C22.3233 26.2322 22.7273 28.0366 22.0767 29.5888C21.4555 31.0686 19.919 32.0219 18.1602 32.0219C17.5894 32.0035 17.1832 32.387 17.1202 32.906C16.962 34.2579 16.9603 35.636 17.1126 36.9989C17.1694 37.5071 17.777 37.8844 18.293 37.8844C19.8608 37.8446 21.365 38.8145 21.9969 40.3507C22.6258 41.885 22.221 43.6732 20.9901 44.8021C20.6051 45.156 20.5559 45.7471 20.881 46.158C21.7169 47.2233 22.6771 48.1925 23.728 49.039C24.1406 49.3712 24.7406 49.3246 25.0982 48.9304C26.1753 47.7394 28.1022 47.2987 29.5854 47.9213C31.1392 48.5714 32.1166 50.1417 32.0212 51.8278C31.9899 52.3576 32.3782 52.8193 32.9042 52.8794C33.5924 52.9599 34.2841 52.9998 34.978 52.9998C35.6365 52.9998 36.2952 52.9638 36.954 52.8905C37.4758 52.8329 37.8622 52.383 37.8446 51.8597C37.7844 50.1913 38.7755 48.6485 40.3079 48.0212C41.7891 47.4162 43.6944 47.859 44.7657 49.0351C45.1215 49.4223 45.7096 49.4693 46.1241 49.1487C47.2008 48.3044 48.1799 47.3357 49.0359 46.2696C49.3683 45.857 49.3211 45.2572 48.9286 44.9014C47.6758 43.7674 47.2696 41.9622 47.9202 40.4116C48.5318 38.9517 50.0111 37.9715 51.6022 37.9715L51.8249 37.9774C52.3414 38.0193 52.8161 37.6215 52.8786 37.0945C53.0375 35.7414 53.0392 34.3648 52.8864 33.0015ZM34.9996 45.377C29.2683 45.377 24.6224 40.7312 24.6224 35C24.6224 29.2689 29.2685 24.623 34.9996 24.623C40.7308 24.623 45.3768 29.2689 45.3768 35C45.3768 36.9453 44.8404 38.7648 43.909 40.3208L39.3651 35.7767C39.694 35.0011 39.8678 34.1602 39.8676 33.2924C39.8676 31.5931 39.2058 29.9956 38.0041 28.7942C36.8026 27.5927 35.2051 26.9311 33.5061 26.9311C32.9391 26.9311 32.3747 27.0064 31.8287 27.1551C31.5896 27.2203 31.3941 27.4174 31.3304 27.657C31.2653 27.9021 31.3386 28.1532 31.5301 28.3449C31.5301 28.3449 33.7734 30.6054 34.524 31.3559C34.6026 31.4345 34.6025 31.6221 34.5914 31.6896L34.5844 31.739C34.5087 32.5641 34.3629 33.5546 34.2425 33.9353C34.2263 33.9513 34.2111 33.9649 34.1946 33.9814C34.1773 33.9986 34.1614 34.0153 34.1447 34.0324C33.7591 34.1562 32.7534 34.3038 31.9151 34.3788L31.9153 34.3743L31.8776 34.3838C31.8709 34.3846 31.8585 34.3855 31.842 34.3855C31.7514 34.3855 31.6181 34.3601 31.497 34.2392C30.7157 33.4579 28.5604 31.318 28.5604 31.318C28.367 31.1253 28.1687 31.0848 28.0365 31.0848C27.7284 31.0848 27.4525 31.3074 27.3657 31.6267C26.7723 33.8224 27.4013 36.1842 29.0075 37.7906C30.2093 38.9922 31.8069 39.6538 33.5063 39.6538C34.3741 39.6538 35.2149 39.4802 35.9904 39.1513L40.5836 43.7445C38.971 44.7764 37.0561 45.377 34.9996 45.377Z" fill="white"/>
</g>
<defs>
<clipPath id="clip0">
<rect width="36" height="36" fill="white" transform="translate(17 17)"/>
</clipPath>
</defs>
</svg>
