<svg width="71" height="71" viewBox="0 0 71 71" fill="none" xmlns="http://www.w3.org/2000/svg">
<rect width="71" height="71" rx="20" fill="#0090D3"/>
<g clip-path="url(#clip0)">
<path d="M33.5 38.6251C33.5 38.0056 32.993 37.5001 32.375 37.5001H26.75V42.0001C26.75 42.8281 26.078 43.5001 25.25 43.5001C24.422 43.5001 23.75 42.8281 23.75 42.0001V37.5001H18.125C17.5055 37.5001 17 38.0056 17 38.6251V52.8751C17 53.4946 17.5055 54.0001 18.125 54.0001H32.375C32.993 54.0001 33.5 53.4946 33.5 52.8751V38.6251Z" fill="#F5F5F5"/>
<path d="M52.9995 38.6251C52.9995 38.0056 52.4925 37.5001 51.8745 37.5001H46.2495V42.0001C46.2495 42.8281 45.5775 43.5001 44.7495 43.5001C43.9215 43.5001 43.2495 42.8281 43.2495 42.0001V37.5001H37.6245C37.005 37.5001 36.4995 38.0056 36.4995 38.6251V52.8751C36.4995 53.4946 37.005 54.0001 37.6245 54.0001H51.8745C52.4925 54.0001 52.9995 53.4946 52.9995 52.8751V38.6251Z" fill="#F5F5F5"/>
<path d="M43.2505 19.125C43.2505 18.507 42.7435 18 42.1255 18H36.5005V22.5C36.5005 23.328 35.8285 24 35.0005 24C34.1725 24 33.5005 23.328 33.5005 22.5V18H27.8755C27.256 18 26.7505 18.507 26.7505 19.125V33.375C26.7505 33.9945 27.256 34.5 27.8755 34.5H42.1255C42.7435 34.5 43.2505 33.9945 43.2505 33.375V19.125Z" fill="#F5F5F5"/>
</g>
<defs>
<clipPath id="clip0">
<rect width="36" height="36" fill="white" transform="translate(17 18)"/>
</clipPath>
</defs>
</svg>
