<svg width="71" height="71" viewBox="0 0 71 71" fill="none" xmlns="http://www.w3.org/2000/svg">
<rect width="71" height="71" rx="20" fill="#0090D3"/>
<g clip-path="url(#clip0)">
<path d="M34.1667 40.8501C34.3666 41.1065 34.6724 41.2569 34.9969 41.2579H35C35.3234 41.2579 35.6283 41.1096 35.8281 40.8562C35.894 40.7728 37.4441 38.7983 39.1219 36.1225C41.9853 31.5494 43.4375 27.9548 43.4375 25.4376C43.4375 20.7853 39.6524 17.0001 35 17.0001C30.3476 17.0001 26.5625 20.7853 26.5625 25.4376C26.5625 27.6963 27.679 30.7059 29.9789 34.6435C31.9729 38.0166 34.0782 40.7357 34.1667 40.8501ZM35 21.2189C37.3267 21.2189 39.2188 23.1109 39.2188 25.4376C39.2188 27.7643 37.3267 29.6564 35 29.6564C32.6733 29.6564 30.7812 27.7643 30.7812 25.4376C30.7812 23.1109 32.6733 21.2189 35 21.2189Z" fill="white"/>
<path d="M35 27.547C36.165 27.547 37.1094 26.6026 37.1094 25.4376C37.1094 24.2726 36.165 23.3282 35 23.3282C33.835 23.3282 32.8906 24.2726 32.8906 25.4376C32.8906 26.6026 33.835 27.547 35 27.547Z" fill="white"/>
<path d="M52.4428 31.8903C52.1008 31.7059 51.6837 31.7265 51.3602 31.9428L46.6719 35.0684V52.5098L52.5303 48.6041C52.8239 48.4085 53 48.0788 53 47.7266V32.8204C53 32.4311 52.7858 32.0737 52.4428 31.8903Z" fill="white"/>
<path d="M17 37.0393V51.9455C17 52.3349 17.2142 52.6923 17.5572 52.8756C17.8992 53.06 18.3174 53.0373 18.6398 52.8231L23.3281 49.6972V32.256L17.4697 36.1617C17.1761 36.3574 17 36.687 17 37.0393V37.0393Z" fill="white"/>
<path d="M40.91 37.2419C39.1518 40.0455 37.5502 42.0786 37.4833 42.1641C36.8808 42.9284 35.9754 43.3671 35.0001 43.3671H34.9939C34.0123 43.364 33.1049 42.9191 32.5024 42.1466C32.2665 41.8418 30.1705 39.1124 28.1631 35.7166C27.4045 34.4179 26.7822 33.2258 26.2621 32.1065L25.5078 31.9557V49.0127L44.4922 52.8098V35.75L42.0928 35.2658C41.7262 35.9053 41.3361 36.561 40.91 37.2419Z" fill="white"/>
</g>
<defs>
<clipPath id="clip0">
<rect width="36" height="36" fill="white" transform="translate(17 17)"/>
</clipPath>
</defs>
</svg>
