<svg width="608" height="601" viewBox="0 0 608 601" fill="none" xmlns="http://www.w3.org/2000/svg">
<path opacity="0.16" d="M134.813 332.61C134.324 332.716 134.324 332.715 134.324 332.715L134.323 332.713L134.322 332.707L134.318 332.686L134.31 332.649L134.301 332.604C134.287 332.532 134.267 332.426 134.241 332.286C134.191 332.006 134.12 331.589 134.04 331.038C133.879 329.935 133.679 328.293 133.519 326.128C133.199 321.798 133.039 315.375 133.673 306.979C134.942 290.186 139.389 265.506 152.09 233.906L152.093 233.898L152.097 233.89C180.175 170.464 233.689 147.664 246.479 142.551C249.645 141.285 251.816 140.037 253.111 138.862C254.409 137.685 254.736 136.675 254.499 135.83C254.247 134.932 253.305 133.987 251.51 133.097C249.738 132.218 247.239 131.445 244.074 130.829L244.069 130.828C231.487 128.245 203.623 128.186 152.825 161.072L152.229 160.271C183.435 133.666 211.808 120.967 236.712 116.874C261.618 112.78 283.019 117.3 300.266 125.077C317.508 132.852 330.598 143.881 338.902 152.813C343.053 157.278 346.017 161.229 347.709 163.999C348.549 165.374 349.098 166.494 349.306 167.254C349.359 167.448 349.395 167.634 349.404 167.806C349.412 167.972 349.398 168.166 349.31 168.345C349.211 168.547 349.034 168.694 348.806 168.748C348.604 168.795 348.406 168.758 348.244 168.706C347.359 168.418 345.474 168.148 342.681 168C339.906 167.852 336.281 167.826 331.947 168.006C323.28 168.367 311.794 169.552 298.636 172.234C272.32 177.597 239.339 188.94 208.852 211.618C179.696 234.285 161.306 264.552 150.203 289.172C144.652 301.48 140.926 312.37 138.588 320.181C137.419 324.086 136.597 327.221 136.068 329.379C135.803 330.457 135.611 331.291 135.486 331.855C135.424 332.137 135.378 332.351 135.347 332.495C135.339 332.532 135.333 332.565 135.327 332.593L135.314 332.656L135.305 332.696L135.303 332.706L135.303 332.708C135.303 332.709 135.303 332.709 134.813 332.61ZM134.813 332.61L135.303 332.709L134.324 332.716L134.813 332.61ZM162.97 4.18595L162.97 4.18587C305.241 -43.8302 457.617 9.27651 541.485 122.919L541.49 122.927L541.496 122.934C551.554 135.536 559.143 148.141 566.869 163.213C564.373 178.268 559.277 193.331 554.165 208.44C533.82 266.5 500.75 322.08 427.1 377.681C380.14 413.02 324.276 428.192 276.304 433.577C228.327 438.962 188.297 434.553 173.048 430.781L171.213 430.327L172.584 431.629C200.672 458.308 240.828 475.425 283.806 483.342C326.787 491.26 372.634 489.985 412.141 479.838C490.677 459.668 556.564 407.042 607.495 321.762C606.763 447.516 530.527 580.347 381.363 633.065C312.727 655.762 226.361 655.764 150.1 627.973C63.7379 592.61 -9.88257 521.892 -42.9564 428.487C-101.222 251.681 -9.73233 62.378 162.97 4.18595Z" fill="#EEEEEE" stroke="#767E85"/>
</svg>
